<?xml version="1.0" encoding="UTF-8"?>
<svg id="SVGRoot" width="48" height="48" version="1.1" viewBox="0 0 48 48" xmlns="http://www.w3.org/2000/svg" xmlns:cc="http://creativecommons.org/ns#" xmlns:dc="http://purl.org/dc/elements/1.1/" xmlns:rdf="http://www.w3.org/1999/02/22-rdf-syntax-ns#">
 <metadata>
  <rdf:RDF>
   <cc:Work rdf:about="">
    <dc:format>image/svg+xml</dc:format>
    <dc:type rdf:resource="http://purl.org/dc/dcmitype/StillImage"/>
    <dc:title/>
   </cc:Work>
  </rdf:RDF>
 </metadata>
 <path d="m34.028 11.999c-1.9232 0.0044-3.6142 0.69231-5.11 1.6397 0.42602 0.26986 0.89396 0.48148 1.2678 0.81169 1.1556-0.61108 2.4199-1.0534 3.8449-1.0568h0.0014c0.0059-6e-6 0.01202-6e-6 0.01794 0 4.4685 1.37e-4 8.0478 3.409 8.0472 7.5967-1.49e-4 4.1871-3.5791 7.5952-8.0472 7.5953-1.4437-4.5e-5 -2.7231-0.45158-3.8905-1.0745-0.04515 0.03905-0.07409 0.0925-0.12002 0.13074-0.33688 0.28052-0.74449 0.47322-1.1202 0.70819 0.35019 0.21891 0.66519 0.48339 1.0444 0.65916h-0.65255c0.58392 0 1.1404 0.11749 1.6472 0.32958 0.50681 0.21209 0.96408 0.51863 1.3479 0.89749 0.04832 0.0477 0.06854 0.11757 0.11451 0.16751h7.1546c1.5775 0 2.8254 1.2319 2.8254 2.7892v4.8061h1.4127v-4.8061c0-2.3057-1.9024-4.1838-4.2381-4.1838h-1.4375c3.1456-1.4582 5.372-4.461 5.3721-8.0189 6.86e-4 -4.9726-4.2578-8.9904-9.4585-8.9913-0.0074-8e-6 -0.01464-8e-6 -0.02207 0z" style="color-rendering:auto;color:#000000;dominant-baseline:auto;font-feature-settings:normal;font-variant-alternates:normal;font-variant-caps:normal;font-variant-east-asian:normal;font-variant-ligatures:normal;font-variant-numeric:normal;font-variant-position:normal;font-variation-settings:normal;image-rendering:auto;inline-size:0;isolation:auto;mix-blend-mode:normal;shape-margin:0;shape-padding:0;shape-rendering:auto;solid-color:#000000;stop-color:#000000;text-decoration-color:#000000;text-decoration-line:none;text-decoration-style:solid;text-indent:0;text-orientation:mixed;text-transform:none;white-space:normal"/>
 <path d="m13.438 12c-5.1926 0.01179-9.4385 4.0264-9.4378 8.9913 1.271e-4 3.5577 2.2266 6.5606 5.3721 8.0189h-0.98227c-2.3357 0-4.2381 1.878-4.2381 4.1838v4.8061h1.4127v-4.8061c0-1.5573 1.2479-2.7892 2.8254-2.7892h7.4029c0.04596-0.04994 0.06619-0.11981 0.11451-0.16751 0.38378-0.37886 0.83968-0.6854 1.3465-0.89749 0.50681-0.21209 1.0647-0.32958 1.6486-0.32958h-1.3548c0.42432-0.19671 0.78085-0.48765 1.1685-0.73815-0.33066-0.21366-0.69776-0.37969-0.99745-0.6292-0.08134-0.06771-0.13359-0.16131-0.21246-0.23152-1.2043 0.679-2.534 1.1753-4.0464 1.1753-4.4681-1.38e-4 -8.047-3.4082-8.0472-7.5953-5.884e-4 -4.1806 3.5668-7.5865 8.0279-7.5967 0.0064-7e-6 0.01157-7e-6 0.01793 0h0.0014c1.4871 4.6e-5 2.7988 0.479 3.9898 1.1372 0.36846-0.33585 0.84503-0.53689 1.2665-0.81305-1.5259-1.0001-3.2702-1.7184-5.2549-1.7187-0.0074-8e-6 -0.01602-8e-6 -0.02345 0z" style="color-rendering:auto;color:#000000;dominant-baseline:auto;font-feature-settings:normal;font-variant-alternates:normal;font-variant-caps:normal;font-variant-east-asian:normal;font-variant-ligatures:normal;font-variant-numeric:normal;font-variant-position:normal;font-variation-settings:normal;image-rendering:auto;inline-size:0;isolation:auto;mix-blend-mode:normal;shape-margin:0;shape-padding:0;shape-rendering:auto;solid-color:#000000;stop-color:#000000;text-decoration-color:#000000;text-decoration-line:none;text-decoration-style:solid;text-indent:0;text-orientation:mixed;text-transform:none;white-space:normal"/>
 <path d="m23.828 12c-5.1926 0.01179-9.4385 4.0264-9.4378 8.9913 1.27e-4 3.5578 2.2279 6.5606 5.3735 8.0189h-0.98365c-2.3357 0-4.2381 1.878-4.2381 4.1838v4.8061h1.4127v-4.8061c0-1.5573 1.2479-2.7892 2.8254-2.7892h10.595c1.5775 0 2.8254 1.2319 2.8254 2.7892v4.8061h1.4127v-4.8061c0-2.3057-1.9024-4.1838-4.2381-4.1838h-1.4375c3.1456-1.4582 5.372-4.461 5.3721-8.0189 6.85e-4 -4.9726-4.2578-8.9904-9.4585-8.9913-0.0074-8e-6 -0.01464-8e-6 -0.02207 0zm0.0028 1.3946h0.0014c0.0059-6e-6 0.01202-6e-6 0.01794 0 4.4685 1.37e-4 8.0478 3.409 8.0472 7.5967-1.5e-4 4.1871-3.5791 7.5952-8.0472 7.5953-4.468-1.38e-4 -8.047-3.4082-8.0472-7.5953-5.9e-4 -4.1802 3.5675-7.5858 8.0279-7.5967z" style="color-rendering:auto;color:#000000;dominant-baseline:auto;font-feature-settings:normal;font-variant-alternates:normal;font-variant-caps:normal;font-variant-east-asian:normal;font-variant-ligatures:normal;font-variant-numeric:normal;font-variant-position:normal;font-variation-settings:normal;image-rendering:auto;inline-size:0;isolation:auto;mix-blend-mode:normal;shape-margin:0;shape-padding:0;shape-rendering:auto;solid-color:#000000;stop-color:#000000;text-decoration-color:#000000;text-decoration-line:none;text-decoration-style:solid;text-indent:0;text-orientation:mixed;text-transform:none;white-space:normal"/>
</svg>
