<?xml version="1.0" encoding="UTF-8"?>
<svg id="SVGRoot" width="48" height="48" version="1.1" viewBox="0 0 48 48" xmlns="http://www.w3.org/2000/svg" xmlns:cc="http://creativecommons.org/ns#" xmlns:dc="http://purl.org/dc/elements/1.1/" xmlns:rdf="http://www.w3.org/1999/02/22-rdf-syntax-ns#">
 <metadata>
  <rdf:RDF>
   <cc:Work rdf:about="">
    <dc:format>image/svg+xml</dc:format>
    <dc:type rdf:resource="http://purl.org/dc/dcmitype/StillImage"/>
    <dc:title/>
   </cc:Work>
  </rdf:RDF>
 </metadata>
 <path d="m23.828 12c-5.1926 0.01179-9.4385 4.0264-9.4378 8.9913 1.27e-4 3.5578 2.2279 6.5606 5.3735 8.0189h-0.98365c-2.3357 0-4.2381 1.878-4.2381 4.1838v4.8061h1.4127v-4.8061c0-1.5573 1.2479-2.7892 2.8254-2.7892h10.595c1.5775 0 2.8254 1.2319 2.8254 2.7892v4.8061h1.4127v-4.8061c0-2.3057-1.9024-4.1838-4.2381-4.1838h-1.4375c3.1456-1.4582 5.372-4.461 5.3721-8.0189 6.85e-4 -4.9726-4.2578-8.9904-9.4585-8.9913-0.0074-8e-6 -0.01464-8e-6 -0.02207 0zm0.0028 1.3946h0.0014c0.0059-6e-6 0.01202-6e-6 0.01794 0 4.4685 1.37e-4 8.0478 3.409 8.0472 7.5967-1.5e-4 4.1871-3.5791 7.5952-8.0472 7.5953-4.468-1.38e-4 -8.047-3.4082-8.0472-7.5953-5.9e-4 -4.1802 3.5675-7.5858 8.0279-7.5967z" style="color-rendering:auto;color:#000000;dominant-baseline:auto;font-feature-settings:normal;font-variant-alternates:normal;font-variant-caps:normal;font-variant-east-asian:normal;font-variant-ligatures:normal;font-variant-numeric:normal;font-variant-position:normal;font-variation-settings:normal;image-rendering:auto;inline-size:0;isolation:auto;mix-blend-mode:normal;shape-margin:0;shape-padding:0;shape-rendering:auto;solid-color:#000000;stop-color:#000000;text-decoration-color:#000000;text-decoration-line:none;text-decoration-style:solid;text-indent:0;text-orientation:mixed;text-transform:none;white-space:normal"/>
</svg>
